<svg xmlns="http://www.w3.org/2000/svg" viewBox="0 0 32 32"><rect width="32" height="32" fill="#15171C"/><g shape-rendering="crispEdges"><rect x="13.632" y="7.317" width="1.610" height="1.610" fill="#F4F5F7"/><rect x="16.789" y="7.317" width="1.610" height="1.610" fill="#F4F5F7"/><rect x="12.053" y="8.896" width="1.610" height="1.610" fill="#F4F5F7"/><rect x="13.632" y="8.896" width="1.610" height="1.610" fill="#F4F5F7"/><rect x="15.211" y="8.896" width="1.610" height="1.610" fill="#F4F5F7"/><rect x="16.789" y="8.896" width="1.610" height="1.610" fill="#F4F5F7"/><rect x="18.368" y="8.896" width="1.610" height="1.610" fill="#F4F5F7"/><rect x="7.317" y="10.475" width="1.610" height="1.610" fill="#F4F5F7"/><rect x="8.896" y="10.475" width="1.610" height="1.610" fill="#F4F5F7"/><rect x="10.475" y="10.475" width="1.610" height="1.610" fill="#F4F5F7"/><rect x="12.053" y="10.475" width="1.610" height="1.610" fill="#F4F5F7"/><rect x="13.632" y="10.475" width="1.610" height="1.610" fill="#F4F5F7"/><rect x="15.211" y="10.475" width="1.610" height="1.610" fill="#F4F5F7"/><rect x="16.789" y="10.475" width="1.610" height="1.610" fill="#F4F5F7"/><rect x="18.368" y="10.475" width="1.610" height="1.610" fill="#F4F5F7"/><rect x="19.947" y="10.475" width="1.610" height="1.610" fill="#F4F5F7"/><rect x="21.525" y="10.475" width="1.610" height="1.610" fill="#F4F5F7"/><rect x="23.104" y="10.475" width="1.610" height="1.610" fill="#F4F5F7"/><rect x="4.160" y="12.053" width="1.610" height="1.610" fill="#F4F5F7"/><rect x="5.739" y="12.053" width="1.610" height="1.610" fill="#F4F5F7"/><rect x="7.317" y="12.053" width="1.610" height="1.610" fill="#F4F5F7"/><rect x="8.896" y="12.053" width="1.610" height="1.610" fill="#F4F5F7"/><rect x="10.475" y="12.053" width="1.610" height="1.610" fill="#F4F5F7"/><rect x="12.053" y="12.053" width="1.610" height="1.610" fill="#F4F5F7"/><rect x="13.632" y="12.053" width="1.610" height="1.610" fill="#F4F5F7"/><rect x="15.211" y="12.053" width="1.610" height="1.610" fill="#F4F5F7"/><rect x="16.789" y="12.053" width="1.610" height="1.610" fill="#F4F5F7"/><rect x="18.368" y="12.053" width="1.610" height="1.610" fill="#F4F5F7"/><rect x="19.947" y="12.053" width="1.610" height="1.610" fill="#F4F5F7"/><rect x="21.525" y="12.053" width="1.610" height="1.610" fill="#F4F5F7"/><rect x="23.104" y="12.053" width="1.610" height="1.610" fill="#F4F5F7"/><rect x="24.683" y="12.053" width="1.610" height="1.610" fill="#F4F5F7"/><rect x="26.261" y="12.053" width="1.610" height="1.610" fill="#F4F5F7"/><rect x="5.739" y="13.632" width="1.610" height="1.610" fill="#F4F5F7"/><rect x="7.317" y="13.632" width="1.610" height="1.610" fill="#F4F5F7"/><rect x="8.896" y="13.632" width="1.610" height="1.610" fill="#F4F5F7"/><rect x="10.475" y="13.632" width="1.610" height="1.610" fill="#F4F5F7"/><rect x="12.053" y="13.632" width="1.610" height="1.610" fill="#F4F5F7"/><rect x="13.632" y="13.632" width="1.610" height="1.610" fill="#F4F5F7"/><rect x="15.211" y="13.632" width="1.610" height="1.610" fill="#F4F5F7"/><rect x="16.789" y="13.632" width="1.610" height="1.610" fill="#F4F5F7"/><rect x="18.368" y="13.632" width="1.610" height="1.610" fill="#F4F5F7"/><rect x="19.947" y="13.632" width="1.610" height="1.610" fill="#F4F5F7"/><rect x="21.525" y="13.632" width="1.610" height="1.610" fill="#F4F5F7"/><rect x="23.104" y="13.632" width="1.610" height="1.610" fill="#F4F5F7"/><rect x="24.683" y="13.632" width="1.610" height="1.610" fill="#F4F5F7"/><rect x="8.896" y="15.211" width="1.610" height="1.610" fill="#F4F5F7"/><rect x="10.475" y="15.211" width="1.610" height="1.610" fill="#F4F5F7"/><rect x="12.053" y="15.211" width="1.610" height="1.610" fill="#F4F5F7"/><rect x="13.632" y="15.211" width="1.610" height="1.610" fill="#F4F5F7"/><rect x="15.211" y="15.211" width="1.610" height="1.610" fill="#F4F5F7"/><rect x="16.789" y="15.211" width="1.610" height="1.610" fill="#F4F5F7"/><rect x="18.368" y="15.211" width="1.610" height="1.610" fill="#F4F5F7"/><rect x="19.947" y="15.211" width="1.610" height="1.610" fill="#F4F5F7"/><rect x="21.525" y="15.211" width="1.610" height="1.610" fill="#F4F5F7"/><rect x="12.053" y="16.789" width="1.610" height="1.610" fill="#F4F5F7"/><rect x="13.632" y="16.789" width="1.610" height="1.610" fill="#F4F5F7"/><rect x="15.211" y="16.789" width="1.610" height="1.610" fill="#F4F5F7"/><rect x="16.789" y="16.789" width="1.610" height="1.610" fill="#F4F5F7"/><rect x="18.368" y="16.789" width="1.610" height="1.610" fill="#F4F5F7"/><rect x="13.632" y="18.368" width="1.610" height="1.610" fill="#F4F5F7"/><rect x="15.211" y="18.368" width="1.610" height="1.610" fill="#F4F5F7"/><rect x="16.789" y="18.368" width="1.610" height="1.610" fill="#F4F5F7"/><rect x="15.211" y="19.947" width="1.610" height="1.610" fill="#F4F5F7"/><rect x="15.211" y="21.525" width="1.610" height="1.610" fill="#F4F5F7"/><rect x="15.211" y="23.104" width="1.610" height="1.610" fill="#F4F5F7"/></g></svg>
